<svg width="129" height="68" viewBox="0 0 129 68" fill="none" xmlns="http://www.w3.org/2000/svg">
<g clip-path="url(#clip0_2_7)">
<path d="M103.816 2.01212H104.013C104.145 2.01212 104.238 1.99212 104.293 1.94812C104.347 1.90412 104.373 1.84812 104.373 1.78112C104.373 1.71312 104.348 1.65812 104.297 1.61512C104.247 1.56512 104.157 1.54512 104.037 1.54512H103.825V2.00512L103.816 2.01212ZM103.361 1.23212H104.179C104.411 1.23212 104.579 1.27912 104.683 1.37212C104.787 1.46712 104.839 1.59212 104.839 1.74912C104.839 1.87312 104.799 1.97912 104.719 2.06912C104.641 2.15912 104.516 2.22512 104.346 2.26512C104.416 2.28512 104.466 2.31512 104.501 2.34512C104.547 2.38512 104.596 2.44512 104.646 2.52512L104.944 3.05512H104.404C104.228 2.70512 104.11 2.49812 104.051 2.43012C103.991 2.36212 103.931 2.33012 103.871 2.33012C103.857 2.33012 103.839 2.33012 103.815 2.33512V3.05512H103.355V1.23212H103.361ZM105.518 2.14912C105.518 1.76712 105.383 1.44112 105.114 1.17112C104.844 0.90112 104.519 0.76612 104.137 0.76612C103.757 0.76612 103.437 0.90212 103.167 1.17112C102.897 1.44112 102.767 1.76712 102.767 2.14912C102.767 2.52912 102.903 2.85612 103.172 3.12612C103.442 3.39612 103.768 3.53112 104.148 3.53112C104.531 3.53112 104.856 3.39612 105.126 3.12612C105.396 2.85612 105.531 2.53012 105.531 2.14912H105.518ZM105.851 2.14912C105.851 2.45612 105.775 2.74112 105.621 3.00612C105.469 3.27112 105.261 3.48012 104.996 3.63312C104.731 3.78512 104.446 3.86112 104.138 3.86112C103.833 3.86112 103.548 3.78512 103.284 3.63312C103.019 3.48012 102.81 3.27112 102.657 3.00612C102.507 2.74112 102.427 2.45612 102.427 2.14912C102.427 1.84412 102.507 1.55912 102.657 1.29312C102.817 1.02712 103.027 0.81812 103.287 0.66512C103.557 0.50512 103.837 0.43512 104.147 0.43512C104.455 0.43512 104.741 0.50512 105.007 0.66512C105.271 0.81512 105.48 1.02512 105.633 1.28512C105.786 1.54812 105.863 1.83512 105.863 2.13912L105.851 2.14912ZM21.3256 42.9961H21.5256C21.6576 42.9961 21.7506 42.9761 21.8056 42.9311C21.8586 42.8891 21.8856 42.8331 21.8856 42.7661C21.8856 42.6961 21.8596 42.6421 21.8086 42.6001C21.7556 42.5561 21.6686 42.5351 21.5436 42.5351H21.3266V42.9951L21.3256 42.9961ZM20.8736 42.2161H21.6916C21.9236 42.2161 22.0916 42.2631 22.1956 42.3561C22.2986 42.4511 22.3506 42.5761 22.3506 42.7341C22.3506 42.8561 22.3106 42.9641 22.2326 43.0541C22.1526 43.1441 22.0276 43.2081 21.8576 43.2491C21.9276 43.2761 21.9796 43.3051 22.0136 43.3341C22.0586 43.3761 22.1086 43.4391 22.1586 43.5201L22.4566 44.0501H21.9166C21.7466 43.7031 21.6266 43.4931 21.5666 43.4261C21.5066 43.3581 21.4466 43.3231 21.3866 43.3231C21.3766 43.3231 21.3566 43.3231 21.3366 43.3301V44.0501H20.8846V42.2161H20.8736ZM23.0306 43.1331C23.0306 42.7511 22.8946 42.4261 22.6256 42.1561C22.3556 41.8861 22.0306 41.7511 21.6496 41.7511C21.2696 41.7511 20.9436 41.8851 20.6736 42.1561C20.4036 42.4261 20.2696 42.7511 20.2696 43.1331C20.2696 43.5131 20.4036 43.8411 20.6736 44.1111C20.9436 44.3811 21.2686 44.5161 21.6496 44.5161C22.0296 44.5161 22.3556 44.3801 22.6256 44.1111C22.8956 43.8411 23.0306 43.5141 23.0306 43.1331ZM23.3636 43.1331C23.3636 43.4401 23.2876 43.7251 23.1336 43.9901C22.9816 44.2551 22.7716 44.4641 22.5066 44.6171C22.2466 44.7771 21.9566 44.8471 21.6566 44.8471C21.3566 44.8471 21.0666 44.7771 20.8066 44.6171C20.5426 44.4671 20.3326 44.2571 20.1796 43.9971C20.0276 43.7351 19.9496 43.4471 19.9496 43.1431C19.9496 42.8371 20.0276 42.5531 20.1796 42.2871C20.3326 42.0211 20.5426 41.8121 20.8076 41.6601C21.0736 41.5081 21.3576 41.4301 21.6636 41.4301C21.9696 41.4301 22.2536 41.5081 22.5196 41.6601C22.7856 41.8131 22.9956 42.0201 23.1496 42.2881C23.2996 42.5561 23.3776 42.8381 23.3776 43.1481L23.3636 43.1331ZM17.3476 35.1381H25.3496L31.1096 20.0131L30.4696 35.1381H38.9526L51.9156 0.44812H43.9956L38.0726 15.7731L39.0326 0.44812H30.4706L17.3476 35.1381ZM53.1976 0.44812L40.3126 35.1381H48.3146L61.2756 0.44812H53.1956H53.1976ZM72.1606 32.7381L83.7656 1.36612L71.4396 14.4921L72.1596 32.7371L72.1606 32.7381ZM16.1656 23.4931C16.1656 23.4931 12.8656 29.7351 12.8656 35.1371C12.8656 35.1371 12.5656 47.8671 25.7096 47.8671H27.5096C27.5096 47.8671 30.1496 48.7071 75.6416 35.1471H64.1196L63.5196 20.8621L58.1176 35.1421H49.8356L62.9196 0.45112H70.8416L67.2416 10.4131L75.7616 0.45012H100.73L98.5676 6.21212H90.0456L87.4056 13.5341H95.3276L92.8076 20.0141H85.0056L81.8856 28.5361H91.2476L90.5276 31.0561C90.5276 31.0561 124.496 22.2941 128.096 21.3341C128.096 21.3341 31.2856 67.2121 15.4406 67.2121C15.4406 67.2121 0.142639 67.3051 0.142639 54.8221C0.142639 54.8221 -1.59736 43.1801 16.1666 23.4941L16.1656 23.4931Z" fill="black"/>
</g>
<defs>
<clipPath id="clip0_2_7">
<rect width="128" height="67" fill="white" transform="translate(0.0957031 0.436127)"/>
</clipPath>
</defs>
</svg>
