<svg width="52" height="53" viewBox="0 0 52 53" fill="none" xmlns="http://www.w3.org/2000/svg">
<path d="M26.1489 37.0884C31.9761 37.0884 36.7002 32.3644 36.7002 26.5372C36.7002 20.7099 31.9761 15.9859 26.1489 15.9859C20.3216 15.9859 15.5977 20.7099 15.5977 26.5372C15.5977 32.3644 20.3216 37.0884 26.1489 37.0884Z" stroke="#585858" stroke-width="3.95672" stroke-linecap="round" stroke-linejoin="round"/>
<path d="M2.40869 37.0884V15.9859C2.40869 8.70178 8.31365 2.79681 15.5978 2.79681H36.7003C43.9844 2.79681 49.8894 8.70178 49.8894 15.9859V37.0884C49.8894 44.3725 43.9844 50.2775 36.7003 50.2775H15.5978C8.31365 50.2775 2.40869 44.3725 2.40869 37.0884Z" stroke="#585858" stroke-width="3.95672"/>
<path d="M40.657 12.0556L40.6834 12.0263" stroke="#585858" stroke-width="3.95672" stroke-linecap="round" stroke-linejoin="round"/>
</svg>
