<svg width="100" height="36" viewBox="0 0 100 36" fill="none" xmlns="http://www.w3.org/2000/svg">
<path d="M11.0307 35.9854C8.05116 35.8658 5.61341 35.0422 3.70729 33.5126C3.34352 33.2204 2.47668 32.3443 2.18586 31.9748C1.41291 30.993 0.887397 30.0375 0.536887 28.9774C-0.541683 25.7141 0.0134182 21.432 2.12464 16.7324C3.93229 12.7089 6.72157 8.71843 11.5879 3.19166C12.3047 2.3784 14.4394 0 14.4532 0C14.4583 0 14.342 0.203568 14.1955 0.451461C12.9302 2.59228 11.8476 5.11396 11.2578 7.29705C10.3103 10.8 10.4246 13.8061 11.5925 16.1371C12.3981 17.743 13.7792 19.134 15.3323 19.9029C18.0511 21.2485 22.0317 21.3598 26.893 20.2286C27.2277 20.1503 43.8123 15.7032 63.748 10.3459C83.6837 4.98821 99.9975 0.60813 100 0.611736C100.006 0.616383 53.6837 20.6383 29.6374 31.0255C25.8292 32.67 24.8108 33.0854 23.0205 33.7203C18.444 35.3437 14.3445 36.1183 11.0307 35.9854Z" fill="black"/>
</svg>
