<svg width="52" height="52" viewBox="0 0 52 52" fill="none" xmlns="http://www.w3.org/2000/svg">
<path d="M39.5913 16.0123C39.5913 16.0123 37.1148 17.4739 35.7377 17.8882C34.9985 17.0392 34.0162 16.4374 32.9235 16.1643C31.8309 15.8911 30.6807 15.9598 29.6284 16.3611C28.5762 16.7623 27.6725 17.4767 27.04 18.4077C26.4073 19.3387 26.0762 20.4412 26.0913 21.5664V22.7924C23.9345 22.8483 21.7974 22.3704 19.8703 21.4014C17.9431 20.4323 16.2858 19.0022 15.0459 17.2384C15.0459 17.2384 10.1368 28.2729 21.1822 33.1772C18.6547 34.8911 15.6437 35.7505 12.5913 35.6293C23.6368 41.7595 37.1368 35.6293 37.1368 21.5296C37.1357 21.1881 37.1028 20.8474 37.0386 20.512C38.2911 19.2779 39.5913 16.0123 39.5913 16.0123Z" stroke="#585858" stroke-width="3.23732" stroke-linecap="round" stroke-linejoin="round"/>
<path d="M2 36.2916V15.1891C2 7.90496 7.90496 2 15.1891 2H36.2916C43.5757 2 49.4807 7.90496 49.4807 15.1891V36.2916C49.4807 43.5757 43.5757 49.4807 36.2916 49.4807H15.1891C7.90496 49.4807 2 43.5757 2 36.2916Z" stroke="#585858" stroke-width="3.95672"/>
</svg>
